<?xml version="1.0" encoding="UTF-8" standalone="no"?>
<!-- Created with Inkscape (http://www.inkscape.org/) -->

<svg
   xmlns:osb="http://www.openswatchbook.org/uri/2009/osb"
   xmlns:dc="http://purl.org/dc/elements/1.1/"
   xmlns:cc="http://creativecommons.org/ns#"
   xmlns:rdf="http://www.w3.org/1999/02/22-rdf-syntax-ns#"
   xmlns:svg="http://www.w3.org/2000/svg"
   xmlns="http://www.w3.org/2000/svg"
   xmlns:sodipodi="http://sodipodi.sourceforge.net/DTD/sodipodi-0.dtd"
   xmlns:inkscape="http://www.inkscape.org/namespaces/inkscape"
   width="128"
   height="128"
   id="svg2984"
   version="1.1"
   inkscape:version="0.48.4 r9939"
   sodipodi:docname="copy.svg"
   inkscape:export-filename="D:\Documents and Settings\Administrator\桌面\copy.png"
   inkscape:export-xdpi="90"
   inkscape:export-ydpi="90">
  <defs
     id="defs2986">
    <inkscape:path-effect
       effect="spiro"
       id="path-effect3767"
       is_visible="true" />
    <linearGradient
       id="linearGradient4918"
       osb:paint="solid">
      <stop
         style="stop-color:#000000;stop-opacity:1;"
         offset="0"
         id="stop4920" />
    </linearGradient>
    <inkscape:path-effect
       effect="spiro"
       id="path-effect4913"
       is_visible="true" />
    <inkscape:path-effect
       effect="spiro"
       id="path-effect4911"
       is_visible="false" />
    <inkscape:path-effect
       effect="gears"
       id="path-effect4909"
       is_visible="true"
       teeth="10"
       phi="5" />
    <inkscape:path-effect
       effect="vonkoch"
       id="path-effect4907"
       is_visible="false"
       ref_path="m 24,32 36,0"
       generator="m 24,52 12,0 m 12,0 12,0"
       similar_only="false"
       nbgenerations="1"
       drawall="true"
       maxComplexity="1000" />
    <inkscape:path-effect
       effect="spiro"
       id="path-effect4905"
       is_visible="true" />
  </defs>
  <sodipodi:namedview
     id="base"
     pagecolor="#000000"
     bordercolor="#666666"
     borderopacity="1.0"
     inkscape:pageopacity="0"
     inkscape:pageshadow="2"
     inkscape:zoom="1.895"
     inkscape:cx="-100.12758"
     inkscape:cy="5.8300719"
     inkscape:current-layer="layer1"
     showgrid="false"
     inkscape:document-units="px"
     inkscape:grid-bbox="true"
     inkscape:window-width="1366"
     inkscape:window-height="708"
     inkscape:window-x="-4"
     inkscape:window-y="-4"
     inkscape:window-maximized="1"
     inkscape:snap-global="false">
    <inkscape:grid
       type="xygrid"
       id="grid4118"
       empspacing="4"
       visible="true"
       enabled="true"
       snapvisiblegridlinesonly="true"
       dotted="false" />
  </sodipodi:namedview>
  <metadata
     id="metadata2989">
    <rdf:RDF>
      <cc:Work
         rdf:about="">
        <dc:format>image/svg+xml</dc:format>
        <dc:type
           rdf:resource="http://purl.org/dc/dcmitype/StillImage" />
        <dc:title></dc:title>
      </cc:Work>
    </rdf:RDF>
  </metadata>
  <g
     id="layer1"
     inkscape:label="Layer 1"
     inkscape:groupmode="layer"
     style="display:inline"
     transform="translate(0,64)">
    <path
       sodipodi:nodetypes="scccsssssssssssssssssssss"
       inkscape:connector-curvature="0"
       d="m 11.2,11.2 12.8,0 0,12.8 12.8,0 0,16 c 0,2.4 -0.8,3.2 -3.2,3.2 l -22.4,0 C 8.8,43.2 8,42.4 8,40 L 8,14.4 C 8,12 8.8,11.2 11.2,11.2 z m 4.8,9.6 3.2,0 c 2.4,0 2.4,3.2 0,3.2 L 16,24 c -2.4,0 -2.4,-3.2 0,-3.2 z m 0,6.4 12.8,0 c 2.4,0 2.4,3.2 0,3.2 l -12.8,0 c -2.4,0 -2.4,-3.2 0,-3.2 z m 0,6.4 12.8,0 c 2.4,0 2.4,3.2 0,3.2 l -12.8,0 c -2.4,0 -2.4,-3.2 0,-3.2 z"
       style="fill:#dddddd;fill-opacity:1;fill-rule:evenodd;stroke:none;display:inline;filter:url(#filter3036)"
       id="path3048" />
    <path
       id="path3050"
       style="fill:#cccccc;fill-opacity:1;fill-rule:evenodd;stroke:none;display:inline"
       d="m 88,11.2 0,12.8 12.8,0 z"
       inkscape:connector-curvature="0"
       sodipodi:nodetypes="cccc" />
    <path
       id="path3775"
       style="fill:#ffffff;fill-opacity:1;fill-rule:evenodd;stroke:none;display:inline;filter:url(#filter3036)"
       d="m 30.4,-43.2 12.8,0 0,12.8 12.8,0 0,16 c 0,2.4 -0.8,3.2 -3.2,3.2 l -22.4,0 c -2.4,0 -3.2,-0.8 -3.2,-3.2 l 0,-25.6 c 0,-2.4 0.8,-3.2 3.2,-3.2 z m 4.8,9.6 3.2,0 c 2.4,0 2.4,3.2 0,3.2 l -3.2,0 c -2.4,0 -2.4,-3.2 0,-3.2 z m 0,6.4 12.8,0 c 2.4,0 2.4,3.2 0,3.2 l -12.8,0 c -2.4,0 -2.4,-3.2 0,-3.2 z m 0,6.4 12.8,0 c 2.4,0 2.4,3.2 0,3.2 l -12.8,0 c -2.4,0 -2.4,-3.2 0,-3.2 z"
       inkscape:connector-curvature="0"
       sodipodi:nodetypes="scccsssssssssssssssssssss" />
    <path
       sodipodi:nodetypes="cccc"
       inkscape:connector-curvature="0"
       d="m 107.2,-43.2 0,12.8 12.8,0 z"
       style="fill:#eeeeee;fill-opacity:1;fill-rule:evenodd;stroke:none;display:inline"
       id="path3020" />
  </g>
</svg>
